<?xml version="1.0" encoding="UTF-8"?>
<svg id="Layer_2" data-name="Layer 2" xmlns="http://www.w3.org/2000/svg" viewBox="0 0 527.53 177.74">
  <defs>
    <style>
      .cls-1 {
        fill: #e71a42;
      }

      .cls-2 {
        fill: #ededed;
      }
    </style>
  </defs>
  <g id="Layer_1-2" data-name="Layer 1">
    <g>
      <g>
        <path class="cls-2" d="M2.83,106.85c4.59-1.99,7.65-5.51,7.65-12.55V12.86C10.49,5.82,7.42,2.3,2.83.31v-.31h29.24l30,58.32L92.08,0h29.24v.31c-4.59,1.99-7.65,5.51-7.65,12.55v81.44c0,7.04,3.06,10.56,7.65,12.55v.31h-36.43v-.31c4.59-1.99,7.65-5.51,7.65-12.55v-51.59l-30.46,56.03-30.46-56.03v51.59c0,7.04,3.06,10.56,7.65,12.55v.31H2.83v-.31Z"/>
        <path class="cls-1" d="M245.16,106.85v.31h-38.42v-.31c4.59-1.99,6.74-5.36,4.9-12.25l-3.37-12.25h-33.37l-3.37,12.25c-1.84,6.89.31,10.26,4.9,12.25v.31h-37.96v-.31c4.59-1.99,8.73-5.36,10.72-12.09l24.19-82.35c1.99-6.74,0-10.1-4.59-12.09v-.31h45.92v.31c-4.59,1.99-6.58,5.36-4.59,12.09l24.34,82.35c1.99,6.74,6.12,10.1,10.72,12.09ZM202.91,62.76l-11.33-41.79-11.33,41.79h22.66Z"/>
        <path class="cls-2" d="M292.16,43.63h21.89c7.35,0,10.87-3.21,13.01-7.96h.31v35.82h-.31c-2.14-4.75-5.66-7.96-13.01-7.96h-21.89v30.77c0,7.04,3.06,10.56,7.65,12.55v.31h-37.5v-.31c4.59-1.99,7.65-5.51,7.65-12.55V12.86c0-7.04-3.06-10.56-7.65-12.55v-.31h73.02l7.04,27.71-.46.31c-6.74-6.58-13.47-7.96-23.12-7.96h-26.63v23.57Z"/>
        <path class="cls-2" d="M363.19,106.85c4.59-1.99,7.65-5.51,7.65-12.55V12.86c0-7.04-3.06-10.56-7.65-12.55v-.31h37.5v.31c-4.59,1.99-7.65,5.51-7.65,12.55v81.44c0,7.04,3.06,10.56,7.65,12.55v.31h-37.5v-.31Z"/>
        <path class="cls-2" d="M524.69,106.85v.31h-38.42v-.31c4.59-1.99,6.74-5.36,4.9-12.25l-3.37-12.25h-33.37l-3.37,12.25c-1.84,6.89.31,10.26,4.9,12.25v.31h-37.96v-.31c4.59-1.99,8.73-5.36,10.72-12.09l24.19-82.35c1.99-6.74,0-10.1-4.59-12.09v-.31h45.92v.31c-4.59,1.99-6.58,5.36-4.59,12.09l24.34,82.35c1.99,6.74,6.12,10.1,10.71,12.09ZM482.44,62.76l-11.33-41.79-11.33,41.79h22.66Z"/>
      </g>
      <g>
        <g>
          <path class="cls-2" d="M87.89,149.07v27.26h-9.86v-45.14h9.88l15.81,28.9,16.08-28.9h9.62v45.14h-9.86v-27.15l-15.73,28.55-15.94-28.66Z"/>
          <path class="cls-2" d="M160.94,157.99l-19.01-26.79h11.75l12.19,17.55,12.19-17.55h11.75l-19.01,26.79v18.29h-9.87v-18.29Z"/>
          <path class="cls-2" d="M198.28,171.64l5.32-7.69c4.51,2.63,10,4.1,15.14,4.09,4.81-.01,7.81-1.73,7.98-4.58.17-2.73-1.54-3.72-6.89-4.9l-5.6-1.24c-10.09-2.23-14.14-6.82-14.16-13.65-.02-7.51,7.64-13.07,17.57-13.08,6.73-.01,13.22,2.04,17.88,4.85l-4.98,7.67c-3.66-2.16-7.58-3.58-11.95-3.6-4.65-.02-7.93,1.58-7.92,4.46.02,2.54,1.95,3.78,6.42,4.75l6.16,1.35c9.68,2.12,13.69,6.24,13.71,13.4.02,7.81-7.48,13.49-18.67,13.51-7.19,0-14.82-2.08-20.02-5.33Z"/>
          <path class="cls-2" d="M262.33,140.21h-14.35l-.06-9.01h38.49v9.01h-14.33v36.13h-9.76v-36.13Z"/>
          <path class="cls-2" d="M301.04,131.2h35.62v9h-25.76v7.9l18.09.04v8.71h-18.09v10.47h25.82v9.01h-35.68v-45.14Z"/>
          <path class="cls-2" d="M380.67,176.33l-17.31-18.89v18.89h-9.92v-45.14h21.5c10.45,0,17.04,5.31,17.04,14.37s-5.33,13.44-15.11,13.77l16.99,16.99h-13.19ZM363.35,151.13h12.38c3.75,0,6.13-1.85,6.13-5.56s-2.39-5.52-6.13-5.52h-12.38v11.08Z"/>
          <path class="cls-2" d="M420.61,157.99l-19.01-26.79h11.75l12.19,17.55,12.19-17.55h11.75l-19.01,26.79v18.29h-9.87v-18.29Z"/>
        </g>
        <path class="cls-1" d="M0,149.95c17.21,1.84,34.55,2.45,51.84,2.25,2.47-.24,4.94-.74,7.41-2.25v10c-4.68-2.87-9.72-2.27-14.81-2.31-4.94.06-9.87.13-14.81.3-9.89.38-19.77.85-29.62,2,0,0,0-10,0-10H0Z"/>
        <path class="cls-1" d="M527.53,159.95c-17.21-1.84-34.55-2.45-51.84-2.25-2.47.24-4.94.74-7.41,2.25v-10c4.68,2.87,9.72,2.27,14.81,2.31,4.94-.06,9.87-.13,14.81-.3,9.89-.38,19.77-.85,29.62-2,0,0,0,10,0,10h0Z"/>
      </g>
    </g>
  </g>
</svg>